<?xml version="1.0" encoding="utf-8" standalone="no"?>
<!DOCTYPE svg PUBLIC "-//W3C//DTD SVG 1.1//EN"
  "http://www.w3.org/Graphics/SVG/1.1/DTD/svg11.dtd">
<svg xmlns:xlink="http://www.w3.org/1999/xlink" width="144pt" height="144pt" viewBox="0 0 144 144" xmlns="http://www.w3.org/2000/svg" version="1.1">
 <metadata>
  <rdf:RDF xmlns:dc="http://purl.org/dc/elements/1.1/" xmlns:cc="http://creativecommons.org/ns#" xmlns:rdf="http://www.w3.org/1999/02/22-rdf-syntax-ns#">
   <cc:Work>
    <dc:type rdf:resource="http://purl.org/dc/dcmitype/StillImage"/>
    <dc:date>2025-05-01T09:13:31.116321</dc:date>
    <dc:format>image/svg+xml</dc:format>
    <dc:creator>
     <cc:Agent>
      <dc:title>Matplotlib v3.8.2, https://matplotlib.org/</dc:title>
     </cc:Agent>
    </dc:creator>
   </cc:Work>
  </rdf:RDF>
 </metadata>
 <defs>
  <style type="text/css">*{stroke-linejoin: round; stroke-linecap: butt}</style>
 </defs>
 <g id="figure_1">
  <g id="patch_1">
   <path d="M 0 144
L 144 144
L 144 0
L 0 0
L 0 144
z
" style="fill: none"/>
  </g>
  <g id="axes_1">
   <g id="patch_2">
    <path d="M 10.8 88.04
L 133.2 88.04
L 133.2 10.8
L 10.8 10.8
L 10.8 88.04
z
" style="fill: none"/>
   </g>
   <g id="matplotlib.axis_1">
    <g id="text_1">
     <path d="M 30.628125 114.193125
L 30.628125 117.299375
L 34.234375 117.299375
L 34.234375 119.799375
L 30.628125 119.799375
L 30.628125 124.436875
Q 30.628125 125.199375 30.93125 125.468125
Q 31.234375 125.736875 32.134375 125.736875
L 33.93125 125.736875
L 33.93125 128.236875
L 30.93125 128.236875
Q 28.8625 128.236875 27.996875 127.374375
Q 27.134375 126.50875 27.134375 124.436875
L 27.134375 119.799375
L 25.39375 119.799375
L 25.39375 117.299375
L 27.134375 117.299375
L 27.134375 114.193125
L 30.628125 114.193125
z
M 36.254297 123.9775
L 36.254297 117.299375
L 39.769922 117.299375
L 39.769922 118.393125
Q 39.769922 119.280625 39.760547 120.624375
Q 39.751172 121.968125 39.751172 122.415
Q 39.751172 123.73375 39.819922 124.315
Q 39.888672 124.89625 40.054297 125.161875
Q 40.266797 125.5025 40.613672 125.69
Q 40.960547 125.874375 41.410547 125.874375
Q 42.504297 125.874375 43.129297 125.03375
Q 43.754297 124.193125 43.754297 122.699375
L 43.754297 117.299375
L 47.251172 117.299375
L 47.251172 128.236875
L 43.754297 128.236875
L 43.754297 126.655625
Q 42.963672 127.611875 42.079297 128.068125
Q 41.194922 128.52125 40.132422 128.52125
Q 38.235547 128.52125 37.244922 127.35875
Q 36.254297 126.19625 36.254297 123.9775
z
M 61.526953 122.74
L 61.526953 123.73375
L 53.355078 123.73375
Q 53.480078 124.965 54.242578 125.580625
Q 55.005078 126.19625 56.370703 126.19625
Q 57.473828 126.19625 58.630078 125.868125
Q 59.789453 125.54 61.011328 124.8775
L 61.011328 127.57125
Q 59.770703 128.04 58.530078 128.280625
Q 57.289453 128.52125 56.048828 128.52125
Q 53.080078 128.52125 51.433203 127.011875
Q 49.789453 125.5025 49.789453 122.7775
Q 49.789453 120.1025 51.405078 118.57125
Q 53.020703 117.036875 55.855078 117.036875
Q 58.433203 117.036875 59.980078 118.59
Q 61.526953 120.14 61.526953 122.74
z
M 57.933203 121.5775
Q 57.933203 120.580625 57.351953 119.97125
Q 56.770703 119.35875 55.833203 119.35875
Q 54.817578 119.35875 54.183203 119.930625
Q 53.548828 120.5025 53.392578 121.5775
L 57.933203 121.5775
z
M 67.669531 126.655625
L 67.669531 132.39625
L 64.175781 132.39625
L 64.175781 117.299375
L 67.669531 117.299375
L 67.669531 118.899375
Q 68.394531 117.943125 69.272656 117.49
Q 70.150781 117.036875 71.294531 117.036875
Q 73.316406 117.036875 74.613281 118.643125
Q 75.913281 120.249375 75.913281 122.7775
Q 75.913281 125.305625 74.613281 126.915
Q 73.316406 128.52125 71.294531 128.52125
Q 70.150781 128.52125 69.272656 128.068125
Q 68.394531 127.611875 67.669531 126.655625
z
M 69.994531 119.574375
Q 68.872656 119.574375 68.269531 120.399375
Q 67.669531 121.224375 67.669531 122.7775
Q 67.669531 124.330625 68.269531 125.155625
Q 68.872656 125.980625 69.994531 125.980625
Q 71.116406 125.980625 71.707031 125.161875
Q 72.300781 124.34 72.300781 122.7775
Q 72.300781 121.215 71.707031 120.39625
Q 71.116406 119.574375 69.994531 119.574375
z
M 78.492188 113.04
L 81.985938 113.04
L 81.985938 128.236875
L 78.492188 128.236875
L 78.492188 113.04
z
M 90.550781 119.536875
Q 89.388281 119.536875 88.778906 120.37125
Q 88.169531 121.205625 88.169531 122.7775
Q 88.169531 124.349375 88.778906 125.186875
Q 89.388281 126.02125 90.550781 126.02125
Q 91.694531 126.02125 92.297656 125.186875
Q 92.903906 124.349375 92.903906 122.7775
Q 92.903906 121.205625 92.297656 120.37125
Q 91.694531 119.536875 90.550781 119.536875
z
M 90.550781 117.036875
Q 93.372656 117.036875 94.960156 118.561875
Q 96.547656 120.08375 96.547656 122.7775
Q 96.547656 125.474375 94.960156 126.999375
Q 93.372656 128.52125 90.550781 128.52125
Q 87.719531 128.52125 86.122656 126.999375
Q 84.525781 125.474375 84.525781 122.7775
Q 84.525781 120.08375 86.122656 118.561875
Q 87.719531 117.036875 90.550781 117.036875
z
M 102.903516 114.193125
L 102.903516 117.299375
L 106.509766 117.299375
L 106.509766 119.799375
L 102.903516 119.799375
L 102.903516 124.436875
Q 102.903516 125.199375 103.206641 125.468125
Q 103.509766 125.736875 104.409766 125.736875
L 106.206641 125.736875
L 106.206641 128.236875
L 103.206641 128.236875
Q 101.137891 128.236875 100.272266 127.374375
Q 99.409766 126.50875 99.409766 124.436875
L 99.409766 119.799375
L 97.669141 119.799375
L 97.669141 117.299375
L 99.409766 117.299375
L 99.409766 114.193125
L 102.903516 114.193125
z
M 117.192188 117.64
L 117.192188 120.29625
Q 116.070313 119.8275 115.023438 119.593125
Q 113.979688 119.35875 113.051563 119.35875
Q 112.054688 119.35875 111.570313 119.60875
Q 111.089063 119.85875 111.089063 120.374375
Q 111.089063 120.79625 111.454688 121.02125
Q 111.820313 121.243125 112.767188 121.3525
L 113.382813 121.44
Q 116.070313 121.780625 116.995313 122.561875
Q 117.923438 123.343125 117.923438 125.015
Q 117.923438 126.761875 116.632813 127.643125
Q 115.345313 128.52125 112.789063 128.52125
Q 111.704688 128.52125 110.545313 128.349375
Q 109.389063 128.1775 108.167188 127.836875
L 108.167188 125.180625
Q 109.214063 125.686875 110.310938 125.943125
Q 111.410938 126.19625 112.542188 126.19625
Q 113.570313 126.19625 114.085938 125.915
Q 114.604688 125.630625 114.604688 125.07125
Q 114.604688 124.6025 114.248438 124.374375
Q 113.892188 124.14625 112.826563 124.018125
L 112.210938 123.94
Q 109.876563 123.64625 108.939063 122.855625
Q 108.001563 122.065 108.001563 120.4525
Q 108.001563 118.715 109.192188 117.8775
Q 110.385938 117.036875 112.845313 117.036875
Q 113.814063 117.036875 114.876563 117.18375
Q 115.942188 117.3275 117.192188 117.64
z
" style="fill: #ffffff; stroke: #444444; stroke-width: 2.5"/>
     <path d="M 30.628125 114.193125
L 30.628125 117.299375
L 34.234375 117.299375
L 34.234375 119.799375
L 30.628125 119.799375
L 30.628125 124.436875
Q 30.628125 125.199375 30.93125 125.468125
Q 31.234375 125.736875 32.134375 125.736875
L 33.93125 125.736875
L 33.93125 128.236875
L 30.93125 128.236875
Q 28.8625 128.236875 27.996875 127.374375
Q 27.134375 126.50875 27.134375 124.436875
L 27.134375 119.799375
L 25.39375 119.799375
L 25.39375 117.299375
L 27.134375 117.299375
L 27.134375 114.193125
L 30.628125 114.193125
z
M 36.254297 123.9775
L 36.254297 117.299375
L 39.769922 117.299375
L 39.769922 118.393125
Q 39.769922 119.280625 39.760547 120.624375
Q 39.751172 121.968125 39.751172 122.415
Q 39.751172 123.73375 39.819922 124.315
Q 39.888672 124.89625 40.054297 125.161875
Q 40.266797 125.5025 40.613672 125.69
Q 40.960547 125.874375 41.410547 125.874375
Q 42.504297 125.874375 43.129297 125.03375
Q 43.754297 124.193125 43.754297 122.699375
L 43.754297 117.299375
L 47.251172 117.299375
L 47.251172 128.236875
L 43.754297 128.236875
L 43.754297 126.655625
Q 42.963672 127.611875 42.079297 128.068125
Q 41.194922 128.52125 40.132422 128.52125
Q 38.235547 128.52125 37.244922 127.35875
Q 36.254297 126.19625 36.254297 123.9775
z
M 61.526953 122.74
L 61.526953 123.73375
L 53.355078 123.73375
Q 53.480078 124.965 54.242578 125.580625
Q 55.005078 126.19625 56.370703 126.19625
Q 57.473828 126.19625 58.630078 125.868125
Q 59.789453 125.54 61.011328 124.8775
L 61.011328 127.57125
Q 59.770703 128.04 58.530078 128.280625
Q 57.289453 128.52125 56.048828 128.52125
Q 53.080078 128.52125 51.433203 127.011875
Q 49.789453 125.5025 49.789453 122.7775
Q 49.789453 120.1025 51.405078 118.57125
Q 53.020703 117.036875 55.855078 117.036875
Q 58.433203 117.036875 59.980078 118.59
Q 61.526953 120.14 61.526953 122.74
z
M 57.933203 121.5775
Q 57.933203 120.580625 57.351953 119.97125
Q 56.770703 119.35875 55.833203 119.35875
Q 54.817578 119.35875 54.183203 119.930625
Q 53.548828 120.5025 53.392578 121.5775
L 57.933203 121.5775
z
M 67.669531 126.655625
L 67.669531 132.39625
L 64.175781 132.39625
L 64.175781 117.299375
L 67.669531 117.299375
L 67.669531 118.899375
Q 68.394531 117.943125 69.272656 117.49
Q 70.150781 117.036875 71.294531 117.036875
Q 73.316406 117.036875 74.613281 118.643125
Q 75.913281 120.249375 75.913281 122.7775
Q 75.913281 125.305625 74.613281 126.915
Q 73.316406 128.52125 71.294531 128.52125
Q 70.150781 128.52125 69.272656 128.068125
Q 68.394531 127.611875 67.669531 126.655625
z
M 69.994531 119.574375
Q 68.872656 119.574375 68.269531 120.399375
Q 67.669531 121.224375 67.669531 122.7775
Q 67.669531 124.330625 68.269531 125.155625
Q 68.872656 125.980625 69.994531 125.980625
Q 71.116406 125.980625 71.707031 125.161875
Q 72.300781 124.34 72.300781 122.7775
Q 72.300781 121.215 71.707031 120.39625
Q 71.116406 119.574375 69.994531 119.574375
z
M 78.492188 113.04
L 81.985938 113.04
L 81.985938 128.236875
L 78.492188 128.236875
L 78.492188 113.04
z
M 90.550781 119.536875
Q 89.388281 119.536875 88.778906 120.37125
Q 88.169531 121.205625 88.169531 122.7775
Q 88.169531 124.349375 88.778906 125.186875
Q 89.388281 126.02125 90.550781 126.02125
Q 91.694531 126.02125 92.297656 125.186875
Q 92.903906 124.349375 92.903906 122.7775
Q 92.903906 121.205625 92.297656 120.37125
Q 91.694531 119.536875 90.550781 119.536875
z
M 90.550781 117.036875
Q 93.372656 117.036875 94.960156 118.561875
Q 96.547656 120.08375 96.547656 122.7775
Q 96.547656 125.474375 94.960156 126.999375
Q 93.372656 128.52125 90.550781 128.52125
Q 87.719531 128.52125 86.122656 126.999375
Q 84.525781 125.474375 84.525781 122.7775
Q 84.525781 120.08375 86.122656 118.561875
Q 87.719531 117.036875 90.550781 117.036875
z
M 102.903516 114.193125
L 102.903516 117.299375
L 106.509766 117.299375
L 106.509766 119.799375
L 102.903516 119.799375
L 102.903516 124.436875
Q 102.903516 125.199375 103.206641 125.468125
Q 103.509766 125.736875 104.409766 125.736875
L 106.206641 125.736875
L 106.206641 128.236875
L 103.206641 128.236875
Q 101.137891 128.236875 100.272266 127.374375
Q 99.409766 126.50875 99.409766 124.436875
L 99.409766 119.799375
L 97.669141 119.799375
L 97.669141 117.299375
L 99.409766 117.299375
L 99.409766 114.193125
L 102.903516 114.193125
z
M 117.192188 117.64
L 117.192188 120.29625
Q 116.070313 119.8275 115.023438 119.593125
Q 113.979688 119.35875 113.051563 119.35875
Q 112.054688 119.35875 111.570313 119.60875
Q 111.089063 119.85875 111.089063 120.374375
Q 111.089063 120.79625 111.454688 121.02125
Q 111.820313 121.243125 112.767188 121.3525
L 113.382813 121.44
Q 116.070313 121.780625 116.995313 122.561875
Q 117.923438 123.343125 117.923438 125.015
Q 117.923438 126.761875 116.632813 127.643125
Q 115.345313 128.52125 112.789063 128.52125
Q 111.704688 128.52125 110.545313 128.349375
Q 109.389063 128.1775 108.167188 127.836875
L 108.167188 125.180625
Q 109.214063 125.686875 110.310938 125.943125
Q 111.410938 126.19625 112.542188 126.19625
Q 113.570313 126.19625 114.085938 125.915
Q 114.604688 125.630625 114.604688 125.07125
Q 114.604688 124.6025 114.248438 124.374375
Q 113.892188 124.14625 112.826563 124.018125
L 112.210938 123.94
Q 109.876563 123.64625 108.939063 122.855625
Q 108.001563 122.065 108.001563 120.4525
Q 108.001563 118.715 109.192188 117.8775
Q 110.385938 117.036875 112.845313 117.036875
Q 113.814063 117.036875 114.876563 117.18375
Q 115.942188 117.3275 117.192188 117.64
z
" style="fill: #ffffff"/>
    </g>
   </g>
   <g id="matplotlib.axis_2"/>
   <g id="line2d_1">
    <path d="M 17.076923 82.618855
L 18.18648 80.282092
L 19.296037 77.916763
L 20.405594 75.532294
L 21.515152 73.138206
L 22.624709 70.744071
L 23.734266 68.359457
L 24.843823 65.993887
L 25.95338 63.656789
L 27.062937 61.357447
L 28.172494 59.104957
L 29.282051 56.908182
L 30.391608 54.775706
L 31.501166 52.71579
L 32.610723 50.736335
L 33.72028 48.844838
L 34.829837 47.048358
L 35.939394 45.353477
L 37.048951 43.766271
L 38.158508 42.292278
L 39.268065 40.936469
L 40.377622 39.703226
L 41.487179 38.596317
L 42.596737 37.618879
L 43.706294 36.773402
L 44.815851 36.061717
L 45.925408 35.484986
L 47.034965 35.043697
L 48.144522 34.737661
L 49.254079 34.566013
L 50.363636 34.527216
L 51.473193 34.619068
L 52.582751 34.838718
L 53.692308 35.182673
L 54.801865 35.646819
L 55.911422 36.226442
L 57.020979 36.916252
L 58.130536 37.710406
L 59.240093 38.602541
L 60.34965 39.585806
L 61.459207 40.65289
L 62.568765 41.796068
L 63.678322 43.007232
L 64.787879 44.277934
L 65.897436 45.59943
L 67.006993 46.962722
L 68.11655 48.358602
L 69.226107 49.7777
L 70.335664 51.210529
L 71.445221 52.647535
L 72.554779 54.079142
L 73.664336 55.495802
L 74.773893 56.888039
L 75.88345 58.246502
L 76.993007 59.562008
L 78.102564 60.825588
L 79.212121 62.028533
L 80.321678 63.162437
L 81.431235 64.219239
L 82.540793 65.191263
L 83.65035 66.071257
L 84.759907 66.852429
L 85.869464 67.528481
L 86.979021 68.09364
L 88.088578 68.542687
L 89.198135 68.870983
L 90.307692 69.074493
L 91.417249 69.149806
L 92.526807 69.094151
L 93.636364 68.905411
L 94.745921 68.582136
L 95.855478 68.123547
L 96.965035 67.52954
L 98.074592 66.80069
L 99.184149 65.938245
L 100.293706 64.944119
L 101.403263 63.820888
L 102.512821 62.571769
L 103.622378 61.20061
L 104.731935 59.71187
L 105.841492 58.110593
L 106.951049 56.402388
L 108.060606 54.593396
L 109.170163 52.690264
L 110.27972 50.700106
L 111.389277 48.630476
L 112.498834 46.489321
L 113.608392 44.284946
L 114.717949 42.025974
L 115.827506 39.721299
L 116.937063 37.380044
L 118.04662 35.011514
L 119.156177 32.625153
L 120.265734 30.23049
L 121.375291 27.837099
L 122.484848 25.454545
L 123.594406 23.092342
L 124.703963 20.759898
L 125.81352 18.466477
L 126.923077 16.221145
" clip-path="url(#pceb5def194)" style="fill: none; stroke: #6495ed; stroke-opacity: 0.99; stroke-width: 5; stroke-linecap: round"/>
   </g>
   <g id="patch_3">
    <path d="M 10.8 88.04
L 10.8 10.8
" style="fill: none; stroke: #708090; stroke-width: 2; stroke-linejoin: miter; stroke-linecap: square"/>
   </g>
   <g id="patch_4">
    <path d="M 10.8 88.04
L 133.2 88.04
" style="fill: none; stroke: #708090; stroke-width: 2; stroke-linejoin: miter; stroke-linecap: square"/>
   </g>
  </g>
 </g>
 <defs>
  <clipPath id="pceb5def194">
   <rect x="10.8" y="10.8" width="122.4" height="77.24"/>
  </clipPath>
 </defs>
</svg>
